<?xml version="1.0" encoding="UTF-8"?>
<svg xmlns="http://www.w3.org/2000/svg" version="1.1" viewBox="0 0 500 500">
  <defs>
    <style>
      .cls-1 {
        fill: #39b54a;
      }

      .cls-2 {
        fill: #8dc63f;
      }

      .cls-3 {
        fill: #fff;
      }

      .cls-4 {
        fill: #051d2e;
      }

      .cls-5 {
        fill: #808285;
      }

      .cls-6 {
        fill: #0e4066;
      }

      .cls-7 {
        fill: #092942;
      }

      .cls-8 {
        fill: #bcbec0;
      }

      .cls-9 {
        fill: #7cb332;
      }

      .cls-10 {
        fill: #519bd6;
      }

      .cls-11 {
        fill: #e67a5c;
      }

      .cls-12 {
        fill: #9c681c;
      }

      .cls-13 {
        fill: #f98c6e;
      }

      .cls-14 {
        display: none;
      }

      .cls-15 {
        fill: #1c75bc;
      }

      .cls-16 {
        fill: #f5dbbf;
      }

      .cls-17 {
        fill: #92c6f0;
      }

      .cls-18 {
        fill: #cfb091;
      }

      .cls-19 {
        fill: #d1684b;
      }

      .cls-20 {
        fill: #231f20;
        opacity: .25;
      }

      .cls-21 {
        fill: #ffeedb;
      }

      .cls-22 {
        fill: #fbb040;
      }

      .cls-23 {
        fill: #e6e7e8;
      }

      .cls-24 {
        fill: #a6d7ff;
      }

      .cls-25 {
        fill: #d1d3d4;
      }

      .cls-26 {
        fill: #155f99;
      }
    </style>
  </defs>
  <!-- Generator: Adobe Illustrator 28.6.0, SVG Export Plug-In . SVG Version: 1.2.0 Build 709)  -->
  <g>
    <g id="BACKGROUND" class="cls-14">
      <rect class="cls-16" x=".9" y=".45" width="499.1" height="499.1"/>
    </g>
    <g id="OBJECTS">
      <g>
        <path class="cls-21" d="M387.39,347.69c27.26-31.7,43.74-72.94,43.74-118.03,0-100.03-81.09-181.13-181.13-181.13S68.87,129.62,68.87,229.65c0,45.09,16.48,86.33,43.74,118.03h274.77Z"/>
        <g>
          <ellipse class="cls-18" cx="142.68" cy="401.36" rx="37.11" ry="8.43"/>
          <path class="cls-18" d="M378.5,409.59c-7.73,0-15.1.23-21.82.64,4.69-1.31,7.35-2.8,7.35-4.39,0-5.08-27.15-9.2-60.63-9.2s-60.63,4.12-60.63,9.2,27.15,9.2,60.63,9.2c8.59,0,16.76-.27,24.17-.76-3.68,1.11-5.75,2.35-5.75,3.67,0,4.61,25.37,8.35,56.67,8.35s56.67-3.74,56.67-8.35-25.37-8.35-56.67-8.35Z"/>
          <path class="cls-18" d="M215.01,414.3c-1.12,0-2.23,0-3.34.02,2.15-.99,3.34-2.06,3.34-3.18,0-4.95-22.96-8.96-51.28-8.96s-51.28,4.01-51.28,8.96,22.78,8.93,50.94,8.96c-5.11,1.71-8.05,3.7-8.05,5.83,0,6.42,26.71,11.62,59.67,11.62s59.67-5.2,59.67-11.62-26.71-11.62-59.67-11.62Z"/>
          <ellipse class="cls-18" cx="421.5" cy="401.22" rx="12.25" ry="3.42"/>
          <path class="cls-18" d="M401.08,395.25c0,.77-2.46,1.39-5.5,1.39s-5.5-.62-5.5-1.39,2.46-1.39,5.5-1.39,5.5.62,5.5,1.39Z"/>
          <ellipse class="cls-18" cx="227.07" cy="397.56" rx="6.05" ry="1.75"/>
          <path class="cls-18" d="M254.75,391.62c0,.73-1.71,1.32-3.81,1.32s-3.81-.59-3.81-1.32,1.71-1.32,3.81-1.32,3.81.59,3.81,1.32Z"/>
        </g>
        <g>
          <path class="cls-2" d="M105.57,392.05c-5.86-16.8-11.79-33.74-21.06-48.93-9.27-15.19-22.25-28.69-38.73-35.4,5.62,21.36,11.15,43.88,25.62,60.56,9.28,10.7,21.52,17.39,34.16,23.78Z"/>
          <path class="cls-9" d="M99.7,378.18c-3.72-6.96-7.55-13.86-11.63-20.61-2.26-3.75-4.6-7.45-7.03-11.08-5.22-7.8-11.16-15.54-19.44-19.95,3.28,8.67,6.57,17.34,10.21,25.87,2.86,6.69,5.97,13.33,10.26,19.19,3.53,4.82,7.81,9.02,12.38,12.85,2.3,1.92,4.68,3.75,7.1,5.53.03.02.07.05.1.08,1.3.67,2.6,1.34,3.91,2-.96-2.75-1.93-5.51-2.91-8.27-.98-1.87-1.97-3.74-2.97-5.61Z"/>
        </g>
        <g>
          <path class="cls-2" d="M99.3,387.76c-8.56-7.72-17.21-15.5-27.2-21.24-9.99-5.74-21.58-9.37-33.03-8.05,9.84,10.38,20,21.45,33.41,26.42,8.6,3.19,17.64,3.18,26.81,2.87Z"/>
          <path class="cls-9" d="M91.65,381.71c-4.28-2.79-8.61-5.52-13.02-8.09-2.45-1.42-4.93-2.8-7.44-4.11-5.39-2.8-11.18-5.35-17.26-5.28,4.56,3.9,9.13,7.81,13.86,11.52,3.71,2.91,7.54,5.71,11.81,7.71,3.51,1.64,7.25,2.69,11.04,3.44,1.91.38,3.83.67,5.76.93.03,0,.06,0,.08.01.95-.02,1.9-.05,2.85-.08-1.4-1.27-2.81-2.53-4.22-3.79-1.14-.76-2.28-1.51-3.43-2.26Z"/>
        </g>
        <g>
          <path class="cls-2" d="M94.25,350.01c-.42-11.52-.85-23.14-3.68-34.31s-8.29-22.01-17.21-29.32c-.6,14.29-1.48,29.29,4.29,42.38,3.7,8.4,10,14.88,16.6,21.25Z"/>
          <path class="cls-9" d="M93.26,340.3c-.98-5.02-2.03-10.02-3.26-14.98-.68-2.75-1.42-5.49-2.23-8.2-1.74-5.82-3.94-11.75-8.22-16.07.37,5.99.75,11.99,1.38,17.96.49,4.69,1.15,9.39,2.69,13.84,1.27,3.66,3.11,7.08,5.21,10.32,1.06,1.63,2.18,3.22,3.34,4.78.02.02.03.05.05.07.68.66,1.36,1.33,2.04,1.99-.07-1.89-.14-3.78-.22-5.67-.25-1.35-.5-2.69-.76-4.04Z"/>
        </g>
        <g>
          <path class="cls-2" d="M296.46,369.18c6.88-9.25,13.82-18.58,18.6-29.07,4.78-10.49,7.31-22.36,4.92-33.64-9.42,10.77-19.49,21.92-23.18,35.74-2.37,8.87-1.51,17.86-.35,26.96Z"/>
          <path class="cls-9" d="M301.77,360.99c2.38-4.52,4.69-9.08,6.83-13.72,1.19-2.57,2.32-5.17,3.39-7.79,2.29-5.63,4.28-11.63,3.64-17.68-3.46,4.91-6.92,9.82-10.17,14.87-2.55,3.96-4.98,8.04-6.57,12.48-1.3,3.64-2,7.47-2.39,11.31-.2,1.93-.31,3.88-.39,5.82,0,.03,0,.06,0,.08.11.94.23,1.88.35,2.83,1.13-1.52,2.26-3.04,3.38-4.56.65-1.21,1.29-2.42,1.93-3.63Z"/>
        </g>
        <g>
          <path class="cls-2" d="M301.5,345.82c3.49-9.29,7.01-18.66,8.46-28.47,1.46-9.81.72-20.24-3.94-29-5.22,11.15-10.9,22.77-10.66,35.09.15,7.9,3,15.14,6.14,22.39Z"/>
          <path class="cls-9" d="M303.94,337.79c.89-4.31,1.72-8.63,2.38-12.98.37-2.41.69-4.83.95-7.26.55-5.2.77-10.64-1.2-15.49-1.69,4.89-3.38,9.77-4.87,14.72-1.16,3.88-2.21,7.84-2.46,11.89-.21,3.32.12,6.66.71,9.92.3,1.65.66,3.28,1.06,4.91,0,.02,0,.05.02.07.32.75.64,1.5.96,2.25.57-1.52,1.14-3.05,1.71-4.58.25-1.15.49-2.31.73-3.46Z"/>
        </g>
        <path class="cls-15" d="M300.9,149.83c-7.35-9.73-17.04-17.68-28.02-22.98-2.12,28.21-3.18,56.6-2.57,84.88,7.59-3.96,15.05-8.34,21.37-14.11s11.58-13.02,13.68-21.32c2.4-9.48.69-19.63-4.47-26.47Z"/>
        <path class="cls-26" d="M274.31,127.57c-.78.92-1.36,2.04-1.7,3.19,0,.02,0,.05-.02.07-.23,3.19-.44,6.39-.64,9.59-.08,11.18-.17,22.37-.25,33.55-.04,5.69-.06,11.55,2.04,16.84,1.02,2.58,2.53,4.94,4.22,7.13.95,1.23,3.41,5.23,5.41,4.72,1.75-.45,2.34-6,2.82-7.6.94-3.09,1.97-6.14,3.11-9.16.59-1.57,1.22-3.18,1.26-4.86.04-1.64-.49-3.23-1.01-4.78-2.99-8.99-5.89-18.11-6.77-27.54-.5-5.37-.33-10.77-.03-16.16-2.7-1.85-5.53-3.51-8.44-5Z"/>
        <g>
          <path class="cls-5" d="M130.36,72.7s-9.43-.76-18.06,12.49c22.5-5.12,34.63-.88,34.63-.88,0,0-6.38-12.22-16.57-11.61Z"/>
          <path class="cls-8" d="M189.03,74.22c-3.9-4.59-7.23-9.66-9.91-15.05,4.04-3.56,4.45-10.62,2.84-15.75-1.61-5.13-5.87-9.22-10.88-11.2s-10.65-1.97-15.86-.62c-6.32,1.65-12.39,5.59-14.9,11.62-2.51,6.03-.33,14.11,5.63,16.77-2.93,8-6.87,15.89-12.37,22.39,15.74.13,31.48.27,47.22-.19,2.57-.07,5.28-.21,7.41-1.65,2.13-1.43,2.48-4.37.82-6.32ZM170.57,52.54c-2.88,2.02-6.73,2.32-9.98,1.02-1.89-.75-3.65-2.09-4.53-3.99-.82-1.77-.79-3.86-.23-5.73.59-1.96,1.84-3.67,3.4-4.9,2.15-1.7,12.98-4.58,15.46,4.26.98,3.48-1.24,7.33-4.13,9.34Z"/>
          <path class="cls-25" d="M146.68,82.47c2.11-7.69,4.81-15.22,8.29-22.38-6.09-1.85-10.64-7.89-10.76-14.25-.09-4.91,2.48-9.7,6.41-12.6-4.51,2.09-8.41,5.44-10.3,9.97-2.51,6.03-.33,14.11,5.63,16.77-2.93,8-6.87,15.89-12.37,22.39,4.36.04,8.73.07,13.09.09Z"/>
          <g>
            <polygon class="cls-15" points="72.45 77.71 275.47 77.71 301.41 373.65 100.86 397.83 72.45 77.71"/>
            <path class="cls-26" d="M223.36,108.62s18.32-6.79,12.38-30.91h-25.39l13.01,30.91Z"/>
            <polygon class="cls-10" points="72.45 77.71 64.83 83.27 93.41 394.89 100.86 397.83 72.45 77.71"/>
            <path class="cls-26" d="M301.41,373.65l-17.88-204-14.3-79.46-179.54-3.54s-1.94,233.71,34.67,308.36l177.05-21.35Z"/>
          </g>
          <path class="cls-3" d="M93.23,92.36l181.07-3.25c6.04,89.18,16.5,178.04,33.81,265.73-60.26,1.84-120.81,10.26-180.02,21.58-16.53-60.04-34.85-230.82-34.85-284.07Z"/>
          <path class="cls-23" d="M215.59,90.17l7.77,18.46s11.96-4.42,13.43-18.84c-7.07.13-14.13.25-21.2.38Z"/>
          <path class="cls-5" d="M149.83,74.95c12.79-.58,25.58-1.16,38.36-1.75-2.5-3.06-4.76-6.31-6.75-9.73-4.37.35-8.67,1.27-12.85,2.65-6.58,2.17-12.78,5.35-18.76,8.83Z"/>
          <g>
            <path class="cls-8" d="M140.26,108.57l83.1.06c4.38-9.47,2.47-20.86-1.02-31.14-1.14-3.37-4.13-5.75-7.67-6.08-26.99-2.49-54.61-2.67-84.31,1.31,9.25,4.87,10.72,22.52,9.9,35.86Z"/>
            <path class="cls-25" d="M224.57,85.32l-85.94.24c1.29,4.99,1.79,10.73,1.81,16.24l85.06-.45c.8-5.17.29-10.65-.93-16.03Z"/>
            <path class="cls-25" d="M178.15,71.53c-5.08.11-10.29.45-14.95,2.49-.83.36-1.78,1.04-1.61,1.93.14.78,1.04,1.13,1.8,1.33,11.7,3.08,23.94,2.93,35.92,2.05,2.35-.17,14.43.17,13.92-3.04-.68-4.29-11.18-3.77-14.13-4.04-6.96-.62-13.96-.86-20.94-.72Z"/>
            <ellipse class="cls-25" cx="152.24" cy="76" rx="5.81" ry="2.25"/>
          </g>
          <path class="cls-8" d="M266.77,174.76l-32.89,1.67-6.29-39.88,32.88-1.67,6.29,39.88ZM237.27,172.25l24.85-1.26-5.03-31.93-24.85,1.26,5.03,31.93Z"/>
          <path class="cls-8" d="M276.8,244.31l-32.89,1.52-6.1-39.9,32.89-1.52,6.1,39.9ZM247.32,241.67l24.86-1.15-4.89-31.95-24.86,1.15,4.89,31.95Z"/>
          <path class="cls-8" d="M256.83,315.7l-6.81-39.79,32.86-2.1,6.81,39.79-32.86,2.1ZM254.72,279.62l5.45,31.86,24.83-1.58-5.45-31.86-24.83,1.58Z"/>
          <g>
            <path class="cls-5" d="M112.33,159.02c-1.34,0-2.45-1.07-2.5-2.42-.04-1.38,1.04-2.53,2.42-2.58l103.61-3.31c1.4-.04,2.54,1.04,2.58,2.42.04,1.38-1.04,2.53-2.42,2.58l-103.61,3.31s-.05,0-.08,0Z"/>
            <path class="cls-5" d="M114.33,169.51c-1.34,0-2.45-1.07-2.5-2.42-.04-1.38,1.04-2.53,2.42-2.58l103.61-3.31c1.41-.04,2.53,1.04,2.58,2.42.04,1.38-1.04,2.53-2.42,2.58l-103.61,3.31s-.05,0-.08,0Z"/>
            <path class="cls-5" d="M116.34,180c-1.34,0-2.45-1.07-2.5-2.42-.04-1.38,1.04-2.53,2.42-2.58l51.81-1.66c1.4-.05,2.54,1.04,2.58,2.42.04,1.38-1.04,2.53-2.42,2.58l-51.81,1.66s-.05,0-.08,0Z"/>
            <path class="cls-2" d="M110.03,148.59c-1.34,0-2.45-1.07-2.5-2.42-.04-1.38,1.04-2.53,2.42-2.58l51.81-1.66c1.4-.04,2.54,1.04,2.58,2.42.04,1.38-1.04,2.53-2.42,2.58l-51.81,1.66s-.05,0-.08,0Z"/>
          </g>
          <g>
            <path class="cls-5" d="M126.34,234.06c-1.27,0-2.36-.97-2.49-2.27-.13-1.37.88-2.59,2.25-2.72l103.21-9.74c1.37-.14,2.59.88,2.72,2.25.13,1.37-.88,2.59-2.25,2.72l-103.21,9.74c-.08,0-.16.01-.24.01Z"/>
            <path class="cls-5" d="M128.99,244.4c-1.27,0-2.36-.97-2.49-2.27-.13-1.37.88-2.59,2.25-2.72l103.21-9.74c1.37-.13,2.59.88,2.72,2.25.13,1.37-.88,2.59-2.25,2.72l-103.21,9.75c-.08,0-.16.01-.24.01Z"/>
            <path class="cls-5" d="M131.64,254.74c-1.27,0-2.36-.97-2.49-2.26-.13-1.38.88-2.59,2.25-2.72l51.6-4.87c1.37-.12,2.59.88,2.72,2.25.13,1.38-.88,2.59-2.25,2.72l-51.6,4.87c-.08,0-.16.01-.24.01Z"/>
            <path class="cls-2" d="M123.4,223.79c-1.27,0-2.36-.97-2.49-2.27-.13-1.37.88-2.59,2.25-2.72l51.6-4.87c1.37-.13,2.59.88,2.72,2.25.13,1.37-.88,2.59-2.25,2.72l-51.6,4.87c-.08,0-.16.01-.24.01Z"/>
          </g>
          <g>
            <path class="cls-5" d="M138.59,307.21c-1.26,0-2.34-.95-2.48-2.22-.15-1.37.84-2.61,2.21-2.76l103.03-11.43c1.37-.16,2.61.84,2.76,2.21.15,1.37-.84,2.61-2.21,2.76l-103.03,11.43c-.09.01-.19.02-.28.02Z"/>
            <path class="cls-5" d="M141.41,317.5c-1.26,0-2.34-.95-2.48-2.22-.15-1.37.84-2.61,2.21-2.76l103.03-11.43c1.37-.16,2.61.84,2.76,2.21.15,1.37-.84,2.61-2.21,2.76l-103.03,11.43c-.09.01-.19.02-.28.02Z"/>
            <path class="cls-5" d="M144.23,327.8c-1.26,0-2.34-.95-2.48-2.22-.15-1.37.84-2.61,2.21-2.76l51.52-5.71c1.37-.16,2.61.84,2.76,2.21.15,1.37-.84,2.61-2.21,2.76l-51.52,5.71c-.09.01-.19.02-.28.02Z"/>
            <path class="cls-2" d="M135.47,296.99c-1.26,0-2.34-.95-2.48-2.22-.15-1.37.84-2.61,2.21-2.76l51.52-5.71c1.38-.16,2.61.84,2.76,2.21.15,1.37-.84,2.61-2.21,2.76l-51.52,5.71c-.09.01-.19.02-.28.02Z"/>
          </g>
          <path class="cls-1" d="M225.96,140.57c7.15,2.35,13.77,5.52,19.19,11.23,7.02-9.04,13.35-17.22,23.26-24.27-9.39,11.36-16.67,23.9-21.57,37.12-4.61-8.9-11.91-17.51-20.88-24.08Z"/>
          <path class="cls-1" d="M236.08,213.33c7.15,2.35,13.77,5.52,19.19,11.23,7.02-9.04,13.35-17.22,23.26-24.27-9.39,11.36-16.67,23.9-21.57,37.12-4.61-8.9-11.91-17.51-20.88-24.08Z"/>
          <path class="cls-1" d="M248.64,281.33c7.15,2.35,13.77,5.52,19.19,11.23,7.02-9.04,13.35-17.22,23.26-24.27-9.39,11.36-16.67,23.9-21.57,37.12-4.61-8.9-11.91-17.51-20.88-24.08Z"/>
        </g>
        <g>
          <path class="cls-3" d="M309.64,387.79c-6.67,3.24-13.33,6.47-20,9.71-.78.38-1.69.97-1.62,1.83.08,1.05,1.46,1.37,2.51,1.41,9.42.34,18.85.67,28.27,1.01v-11.47c-2.92-.51-6.43-1.36-9.16-2.49Z"/>
          <path class="cls-3" d="M376.72,406.27c-1.92,3.75-10.72,7.37-16.47,10.16-.68.33-1.46.83-1.4,1.58.07.91,1.26,1.18,2.17,1.22,5.87.21,15.24.42,23.05.63,3.65.1,6.09-3.72,4.48-7l-4.5-9.77c-2.52-.44-4.97,4.15-7.33,3.17Z"/>
          <path class="cls-7" d="M374.41,231.46c-10.61,3.64-20.86,3.48-30.61,4.81-1.72,2.4-8.3,12.1-10.02,14.5,9.17,1.15,18.34,2.3,27.51,3.45,1.49.19,3.01.37,4.47.04,2.17-.49,3.94-2.08,5.32-3.83,4.08-5.17,5.17-12.65,3.32-18.97Z"/>
          <path class="cls-7" d="M325.4,217.16c3.57-5.46,8.49-9.24,13.46-8.5-.41-.06-4.25,8.89-4.84,9.92-1.85,3.19-3.88,6.14-6.06,8.79-2.14,2.61-4.42,4.93-6.81,6.94-.71.59-2.62,2.83-3.23,1.04-.39-1.13,1.24-4.59,1.61-5.64,1.62-4.54,3.49-8.9,5.87-12.55Z"/>
          <g>
            <g>
              <path class="cls-22" d="M430.67,165.91l-111.7,98.88-17.72-20.02,111.7-98.88c5.53-4.89,13.98-4.38,18.87,1.15h0c4.89,5.53,4.38,13.98-1.15,18.87Z"/>
              <polygon class="cls-13" points="301.24 244.77 273.57 287.12 318.96 264.79 301.24 244.77"/>
              <rect class="cls-12" x="292.96" y="204.17" width="136.5" height="10.75" transform="translate(-48.15 292.05) rotate(-41.51)"/>
              <polygon class="cls-1" points="283.49 271.93 273.57 287.12 289.85 279.11 283.49 271.93"/>
              <path class="cls-13" d="M412.94,145.89l-11.36,10.06,17.72,20.02,11.36-10.06c5.53-4.89,6.04-13.34,1.15-18.87-4.89-5.53-13.34-6.04-18.87-1.15Z"/>
              <rect class="cls-3" x="402.91" y="154.5" width="10.75" height="26.74" transform="translate(-8.68 312.82) rotate(-41.52)"/>
            </g>
            <path class="cls-20" d="M430.67,165.91c4.49-3.98,5.67-10.3,3.33-15.5-.54-1.2-1.27-2.34-2.19-3.37l-158.25,140.08,45.4-22.33,111.71-98.88Z"/>
          </g>
          <path class="cls-11" d="M367.92,223.31c2.57,4.6,2.78,17.2,1.59,22.33,3.94.66,8.39-5.59,12.33-4.93-1.49-4.67-1.92-9.68-1.24-14.54.22-1.61.52-3.41-.46-4.71-1.23-1.64-3.76-1.47-5.67-.72-1.91.75-4.51,2.72-6.56,2.56Z"/>
          <path class="cls-7" d="M350.99,295.38s-24.68,22.99-30.02,41.32c-5.33,18.33-12.87,49.33-12.87,49.33l13.76,2.7,14.11-43.7,22.33-23.33s1.04-22.98-7.32-26.32Z"/>
          <path class="cls-4" d="M350.99,295.38s-9.44,8.79-17.9,19.84c1.34,7.04,2.95,14.03,4.53,20.89.44,1.93.9,3.85,1.37,5.77l19.31-20.18s1.04-22.98-7.32-26.32Z"/>
          <path class="cls-6" d="M376.79,300.41c-1.25,3.34-10.61,7.55-14.18,8.24-3.07.59-6.28-.8-8.45-2.98-2.17-2.18-4.31-4.92-4.35-7.96-.62-45.11,7.75-54.6,15.36-62.12,6.65-6.57,15.62-5.38,20.68,2.33,5.6,8.53,2.64,20.04.39,29.18-3.04,12.38-4.4,19.84-9.46,33.3Z"/>
          <path class="cls-7" d="M367.41,283.76c8.7-12.08,13.53-26.89,13.62-41.78-2.92,7.9-7.62,14.35-13.42,20.46-.89.94-1.82,1.86-2.93,2.52-3.16,1.9-7.17,1.45-10.75.58-.79-.19-1.58-.4-2.38-.6-.64,4.17-1.13,8.98-1.43,14.56,5.6,1.92,11.38,3.28,17.29,4.26Z"/>
          <path class="cls-7" d="M371.97,325.77c3.31-10.17,5.71-15.73,5.34-26.78-17.11,5.21-27.53-3.61-27.53-3.61-2.68,24.43-3.31,37.53,0,61.9,1.94,14.31,16.38,35.07,24.53,47.37,3.51-.88,5.12-1.59,8.62-2.47-3.02-11.36-8.56-31.86-14.57-42.15,1.42-12.77-.43-21.83,3.62-34.25Z"/>
          <path class="cls-13" d="M336.3,210.11c2.78-2.29,8.02-3.52,11.33-2.1.85.37,1.72,1.03,1.76,1.95.05,1.19-1.25,1.92-2.37,2.31-3.49,1.2-7.2,1.74-10.88,1.59-1.17-.34-2.61-1.46.17-3.75Z"/>
          <path class="cls-7" d="M360.91,265.5c1.09.07,2.22.14,3.23-.25,1.57-.6,2.55-2.13,3.34-3.61,2.63-4.89,4.44-10.22,5.33-15.7.54-3.33-.27-7.12-2.81-9.34-6.39,5.08-10.65,12.74-11.6,20.85-1.73-.05-3.55-.08-5.36-.12-.56,2.26-1.06,4.76-1.49,7.56l9.35.61Z"/>
          <g>
            <path class="cls-13" d="M324.61,254.99c-.91-1.22-1.98-2.45-3.44-2.91-1.46-.45-3.36.23-3.69,1.72-.46,2.13,2.38,4.15,1.53,6.16-.25.58-.76,1-1.05,1.55-.55,1.07-.13,2.43.69,3.3.82.87,1.97,1.36,3.09,1.8,1.57.62,3.2,1.19,4.89,1.13,1.03-.04,2.11-.36,2.78-1.14,1.33-1.53-.19-3.81-.91-5.28-1.1-2.22-2.4-4.35-3.89-6.33Z"/>
            <path class="cls-6" d="M359.69,261.67c3.05-12.34,2.67-15.34,7.04-23.45,1.44-2.68,4.18-4.56,7-5.7,2.82-1.14,6.3-1.03,8.64.91,1.83,1.52,2.72,3.94,2.85,6.31.13,2.37-.44,4.72-1.11,7-4.66,15.86-7.08,18.13-16.77,31.52-13.21-1.24-30.66-3.98-40.03-8.92-1.9-1-2.03-4.24-.89-6.06,1.23-1.97,4.07-2.01,6.36-1.59,7.35,1.37,15.67.19,26.91-.02Z"/>
          </g>
          <polygon class="cls-6" points="307.45 383.06 323.66 387.44 321.91 392.94 306.05 388.73 307.45 383.06"/>
          <polygon class="cls-6" points="383.58 397.8 371.87 403.15 374.43 408.4 385.76 403.15 383.58 397.8"/>
          <path class="cls-5" d="M318.8,401.74v-3.1c-10.1-.13-20.21-.27-30.31-.4-.3.3-.5.65-.47,1.07.08,1.05,1.46,1.37,2.51,1.41,9.42.34,18.85.67,28.27,1.01Z"/>
          <path class="cls-5" d="M359.79,416.69c-.52.32-.99.75-.94,1.33.07.91,1.26,1.18,2.17,1.22,5.87.21,15.24.42,23.05.63,2.51.07,4.45-1.72,4.89-3.9-9.72.35-19.45.59-29.17.73Z"/>
          <g>
            <g>
              <path class="cls-13" d="M357.43,218.36c-.4,3.21.01,8.19,2.16,10.61,1.76,1.97,4.67,2.61,7.27,2.15,2.6-.46,4.94-1.86,7.07-3.42,3.66-2.68,6.9-5.93,9.58-9.59,2.5-3.42,4.58-7.73,3.33-11.78-.92-2.96-3.49-5.16-6.27-6.54-3.38-1.68-7.35-2.39-11-1.44-9.24,2.4-11.15,12.09-12.14,20.01Z"/>
              <path class="cls-7" d="M381.19,216.93c.63-2.81.05-5.87-1.56-8.25-1.61-2.38-4.24-4.06-7.09-4.51-2.56-.41-5.16.13-7.72.49-2.57.36-5.29.52-7.64-.57-2.07-.96-3.63-2.84-4.51-4.94-.89-2.1-1.15-4.42-1.1-6.7.03-1.6.22-3.23.82-4.72s1.64-2.84,3.06-3.58c1.91-.99,4.42-.71,6.05.7,1.64,1.4,2.3,3.83,1.62,5.87,1.75-2.59,4.4-4.51,7.3-5.7,1.77-.72,4.03-1.03,5.39.31.86.85,1.11,2.18.91,3.38-.2,1.2-.79,2.29-1.41,3.33,2.71-2.73,6.78-4.03,10.57-3.38.43.07.88.18,1.18.5.52.53.39,1.41.13,2.11-.73,1.99-2.21,3.69-4.08,4.68,2.84,1.11,5.86,2.35,7.61,4.85,1.37,1.95,1.78,4.45,1.58,6.82-.36,4.42-2.81,8.67-6.57,11-.86.53-1.86.98-2.86.82-1-.16-1.89-1.52-1.66-2.51Z"/>
              <path class="cls-13" d="M383.03,214.96c.62-.29,1.33-.52,1.98-.31.73.23,1.21.98,1.32,1.74.1.76-.11,1.53-.41,2.24-.98,2.39-2.9,4.38-5.25,5.45-.48.22-1.07.4-1.52.11-1.25-.79-.83-4.14-.32-5.34.71-1.67,2.61-3.15,4.19-3.9Z"/>
            </g>
            <path class="cls-7" d="M370.65,212.73c-.58,1.46-1.69,2.38-2.48,2.07s-.96-1.75-.38-3.21c.58-1.46,1.69-2.38,2.48-2.07.79.31.96,1.75.38,3.21Z"/>
            <path class="cls-7" d="M362.37,212.73c-.58,1.46-1.69,2.38-2.48,2.07s-.96-1.75-.38-3.21c.58-1.46,1.69-2.38,2.48-2.07.79.31.96,1.75.38,3.21Z"/>
            <path class="cls-19" d="M361.23,217.79c-.33.11-.68.19-.97.38-.29.19-.53.52-.47.87.06.35.39.59.72.72,1.07.43,2.37.08,3.17-.74s1.11-2.07.89-3.2c-.06-.33-.31-1-.75-.75-.3.17-.4.86-.57,1.15-.45.74-1.2,1.3-2.02,1.58Z"/>
            <path class="cls-19" d="M366.73,223.87c-.31,0-.62-.03-.92-.1-.27-.06-.44-.33-.38-.6.06-.27.33-.44.6-.38.85.19,1.78.02,2.51-.46.72-.48,1.24-1.28,1.39-2.13.05-.27.31-.46.58-.41.27.05.45.31.41.58-.2,1.12-.88,2.16-1.83,2.79-.69.46-1.53.7-2.36.7Z"/>
          </g>
        </g>
        <path class="cls-11" d="M307.68,143.44c-2.32,2.5-7.1,5.73-10.37,6.75-8.03,12.61-1.77,14.19,4.75,10.61,2.59-1.42,5.18-2.85,7.76-4.27.43-.24.89-.5,1.12-.93.35-.64.12-1.43-.12-2.12-1.09-3.13-.67-7.83-3.15-10.04Z"/>
        <path class="cls-13" d="M277.23,247.08c-1.62,2.28-3.07,4.67-4.33,7.17-.27.53-.53,1.12-.35,1.69.17.53.69.88,1.24.99.54.11,1.1.03,1.65-.05-.78,2.77-1.77,7.24-1.66,7.9.11.65.6,1.29,1.26,1.33.8.06,2.95-2.99,4.7-6.03,1.26-.51,2.56-1.07,3.68-1.84s2.09-1.82,2.51-3.11c.63-1.94-.08-4.1-1.23-5.79-.71-1.04-1.61-1.98-2.7-2.6-1.1-.62-3.53.07-4.76.34Z"/>
        <path class="cls-15" d="M306.34,165.44c1.76,28.88-7.8,60.47-20.89,86.47-3.4.35-6.49.14-9.71-1,1.62-22.67,6.12-45.06,11.99-67.02,1-3.73,2.1-7.57,4.58-10.52,2.48-2.95,10.47-9.42,14.02-7.93Z"/>
        <g>
          <g>
            <path class="cls-13" d="M320.54,163.78c-2.74,2.05-7.61,4.33-11.14,3.79-2.88-.44-5.21-2.58-6.33-5.03-1.13-2.45-1.22-5.18-1.04-7.81.31-4.52,1.38-9,3.18-13.21,1.68-3.94,4.44-7.99,8.95-9.07,3.3-.79,6.87.22,9.81,1.85,3.58,1.98,6.6,4.96,7.9,8.57,3.28,9.11-4.57,15.87-11.33,20.92Z"/>
            <path class="cls-7" d="M305.06,141.78c5.44,1.57,9.66.75,12.38-4.51,1.35,6.2,13.09,27.31,24.44,17.2-5.57-2.88-5.25-8.72-7.11-14.4-.75-2.27-1.86-4.51-3.7-6.21-1.84-1.7-4.49-2.79-7.06-2.45,1.5-.55,2.95-1.22,4.31-2,.46-.27.95-.61.99-1.11.05-.72-.88-1.15-1.66-1.26-1.99-.29-4.11.25-5.62,1.44-.54-2.05-1.98-3.91-3.94-5.07-.48-.29-1.01-.54-1.59-.59-.57-.05-1.19.15-1.49.59-.26.39-.24.88-.17,1.33.27,1.7,1.09,3.33,2.35,4.63-3.75-.59-7.51,1.37-9.82,4.09-2.3,2.71-3.44,6.08-4.53,9.37.53-.17,1.7-.88,2.23-1.05Z"/>
            <path class="cls-13" d="M308.42,140.26c-.1-.68-.31-1.4-.9-1.85-.65-.5-1.64-.51-2.41-.19-.77.32-1.35.91-1.84,1.53-1.63,2.1-2.33,4.78-1.92,7.34.08.53.27,1.12.8,1.35,1.48.64,4.34-1.49,5.14-2.56,1.13-1.49,1.37-3.89,1.12-5.63Z"/>
          </g>
          <path class="cls-7" d="M317.87,149.58c-1.01,1.26-1.2,2.7-.44,3.2.76.5,2.2-.12,3.2-1.38s1.2-2.7.44-3.2c-.76-.5-2.2.12-3.2,1.38Z"/>
          <path class="cls-7" d="M322.81,156.6c-1.01,1.26-1.2,2.7-.44,3.2s2.2-.12,3.2-1.38c1.01-1.26,1.2-2.7.44-3.2-.76-.5-2.2.12-3.2,1.38Z"/>
          <path class="cls-19" d="M318.8,160.25c.09.34.23.68.23,1.03,0,.35-.17.73-.52.86-.36.14-.78-.02-1.1-.23-1.03-.68-1.49-1.97-1.2-3.09.29-1.12,1.26-2.04,2.44-2.46.34-.12,1.11-.27,1.14.24.02.34-.56.79-.73,1.1-.42.78-.49,1.71-.26,2.55Z"/>
          <path class="cls-19" d="M309.88,158.81c.18.26.4.51.64.73.22.2.57.2.78,0,.21-.19.21-.51,0-.71-.68-.61-1.08-1.5-1.07-2.37.01-.87.44-1.73,1.15-2.31.22-.19.24-.5.03-.71-.21-.21-.56-.22-.78-.04-.92.76-1.48,1.89-1.5,3.03-.01.83.26,1.67.76,2.38Z"/>
        </g>
        <g>
          <path class="cls-7" d="M201.55,358.69c2.26-.31,4.55-.61,6.8-.26,2.25.35,4.49,1.46,5.68,3.4,1.45,2.37,1.06,5.41.32,8.09-1.42,5.14-3.93,9.9-6.48,14.58-5.96,10.97-12.24,21.76-18.51,32.55-1.9,0-4.15.23-5.95-.37s-3.47-1.93-3.97-3.76c-.35-1.29-.1-2.66.16-3.98,2.29-11.71,4.58-23.42,6.86-35.13.74-3.78,1.54-7.71,3.91-10.75,2.36-3.04,7.8-6.21,11.18-4.37Z"/>
          <path class="cls-4" d="M209.45,381.53c-.23-.35-.46-.71-.64-1.06-2.36-4.58-3.78-9.64-4.15-14.78-.18-2.45-.11-4.92.2-7.37-1.11.07-2.21.22-3.31.37-.49-.27-1.04-.42-1.6-.49-1.88.49-3.75,1-5.63,1.51-1.59.93-3.01,2.15-3.95,3.35-1.68,2.15-2.57,4.76-3.21,7.44,1.4,1.9,2.71,3.88,4.07,5.8,3.8,5.36,8.18,10.31,13.02,14.74,1.21-2.18,2.43-4.36,3.62-6.56.53-.98,1.06-1.97,1.59-2.96Z"/>
          <path class="cls-4" d="M201.92,388.25c-2.04-3.28-4.09-6.59-6.65-9.49-2.21-2.51-5.45-4.87-8.64-3.86-.15.05-.28.12-.43.18-1.1,5.62-2.2,11.24-3.29,16.86.57.15,1.14.3,1.61.54,3.53,1.74,6.14,5.12,7.62,8.71,1.02,2.46,1.58,5.06,1.95,7.71,3.32-5.73,6.61-11.48,9.84-17.26-.64-1.15-1.32-2.27-2.01-3.37Z"/>
          <path class="cls-2" d="M132.8,318.2c14.16,16.3,30.41,30.77,48.23,42.96-1.68,2.15-3.59,4.48-6.29,4.82-2.22.28-4.34-.86-6.28-1.96-8.87-5.03-17.87-10.16-25.01-17.44-7.14-7.28-11.26-18.2-10.65-28.38Z"/>
          <path class="cls-9" d="M132.8,318.2c-.62,10.18,3.51,21.1,10.65,28.38,2.28,2.32,4.76,4.41,7.35,6.36.05-1.93.07-3.86.04-5.79-.06-3.59-.26-7.21-.6-10.8-6.11-5.76-11.94-11.81-17.44-18.14Z"/>
          <path class="cls-2" d="M116.2,313.6c-4.93,1.85-9.78,3.84-14.55,5.95-1.78.79-3.64,1.67-4.59,3.16-1.27,1.99-.57,4.48.17,6.71,6.14,18.6,13.03,37.04,20.64,55.3.48,1.15,6.91,17.13,8.14,17.31,6.65,1.01,8.03-13.88,14.69-14.37,1.82-.13,3.72-.35,5.14-1.27,1.81-1.17,2.44-3.2,2.91-5.1,2.14-8.58-5.89-51.9-11.32-60.09-5.44-8.2-11.34-11.31-21.23-7.59Z"/>
          <path class="cls-9" d="M145.93,368.01c.82.28,1.75.52,2.63.53-.41-3.83-1.01-8.15-1.76-12.6-4.41-.63-8.72-1.8-12.88-3.43-2.47-.97-4.89-2.09-7.24-3.33-7.98-4.23-15.16-9.8-22.01-15.69,2.64,4.89,5.33,9.83,9.05,13.96,3.34,3.7,7.42,6.64,11.54,9.43,6.49,4.4,13.25,8.56,20.66,11.13Z"/>
          <path class="cls-11" d="M120.54,304.8c-.88,3.79-1.01,7.76-.41,11.6.3,1.93-1.24,3.63-3.18,3.48-1.54-.11-3.07-.33-4.58-.69-.59-.14-1.2-.31-1.64-.71-.61-.56-.79-1.45-.92-2.27-.62-3.73-1.25-7.46-1.87-11.19-.18-1.06-.34-2.22.2-3.15.73-1.26,2.4-1.54,3.86-1.59,1.58-.05,3.21.03,4.65.69,1.44.66,4.25,2.28,3.89,3.82Z"/>
          <g>
            <path class="cls-13" d="M131.29,295.25c.93,3.29,1.33,8.65-.44,11.76-1.44,2.53-4.27,3.94-6.96,4.12-2.69.18-5.27-.71-7.67-1.82-4.12-1.9-7.91-4.51-11.2-7.69-3.08-2.97-5.87-7-5.27-11.6.44-3.37,2.66-6.33,5.23-8.5,3.13-2.64,6.99-4.4,10.83-4.32,9.68.19,13.19,9.94,15.49,18.06Z"/>
            <path class="cls-7" d="M117.07,292.67c.82,1.39,2.09,2.09,2.83,1.56s.68-2.09-.14-3.48c-.82-1.39-2.09-2.09-2.83-1.56-.74.53-.68,2.09.14,3.48Z"/>
            <path class="cls-7" d="M125.4,290.57c.82,1.39,2.09,2.09,2.83,1.56s.68-2.09-.14-3.48c-.82-1.39-2.09-2.09-2.83-1.56s-.68,2.09.14,3.48Z"/>
            <path class="cls-19" d="M127.37,295.62c.35.04.71.03,1.04.15s.62.42.62.8c0,.38-.3.72-.61.94-1.01.72-2.37.69-3.31.02-.94-.67-1.45-1.91-1.42-3.16,0-.36.15-1.14.63-.98.33.1.54.81.76,1.07.57.67,1.42,1.06,2.29,1.15Z"/>
            <path class="cls-19" d="M122.84,303.44c.31-.08.62-.19.91-.34.26-.13.39-.46.28-.73-.11-.27-.4-.38-.66-.25-.82.42-1.79.48-2.59.15s-1.46-1.03-1.75-1.9c-.09-.28-.38-.4-.65-.28-.27.12-.41.44-.31.71.38,1.13,1.24,2.06,2.29,2.48.77.31,1.65.35,2.49.14Z"/>
            <path class="cls-7" d="M105.87,302.33c1.65-2.03,2.63-4.59,2.74-7.2.11-2.61-.65-5.25-2.12-7.41,5.79-.82,11.28-2.25,16.76-4.28,2.36-.88,4.86-2.02,6-4.27.85-1.66.78-3.65.36-5.46-1.27-5.49-5.43-9.83-9.84-13.34.77,2.32,1.55,4.63,2.32,6.95-2.17-2.32-4.76-4.24-7.62-5.63,1.55,3.14,2.8,6.42,3.74,9.79-5.4-.48-11.09.07-15.85,2.67-4.75,2.6-8.45,7.54-8.53,12.95-.05,3.38,1.29,6.69,3.38,9.34,2.09,2.65,5.62,4.39,8.65,5.89Z"/>
            <path class="cls-13" d="M104.99,298.17c-.67-.15-1.42-.21-2.05.18-.7.43-1.06,1.35-1.04,2.18.02.83.36,1.59.78,2.27,1.38,2.27,3.63,3.89,6.17,4.42.52.11,1.14.15,1.54-.27,1.13-1.15.16-4.58-.55-5.72-.99-1.59-3.14-2.67-4.86-3.06Z"/>
          </g>
          <path class="cls-9" d="M105.37,352.75c7.11,5.79,14.64,11.06,22.84,15.12,6.58,3.26,13.63,5.71,20.85,6.98-.12-2.73-.42-6.01-.88-9.6-3.21-1.15-6.39-2.38-9.52-3.74-13.89-6.03-26.92-14.02-38.58-23.68,1.71,4.99,3.48,9.96,5.3,14.92Z"/>
          <path class="cls-2" d="M111.75,331.57c2.12,8.82,9.67,16.16,18.65,20.87,8.98,4.71,19.34,7.1,29.64,9.01.63.87,1,1.7,1.21,2.7s-.08,2.16-1.03,2.78c-.79.51-1.85.57-2.84.59-13.1.23-26.25-3.23-36.95-9.68-10.71-6.45-18.93-15.85-23.16-26.44-.63-1.58-1.19-3.23-1.13-4.9.06-1.67.82-3.4,2.38-4.41,2.59-1.67,6.52-.8,8.8,1.17s3.77,5.61,4.43,8.32Z"/>
          <path class="cls-17" d="M209.9,349.47c.43,1.87.37,7.2.74,9.59-18.24,6.6-37.18,9.18-56.67,14.64-3.08.86-6.16,1.72-9.24,2.59-1.11.31-2.36.61-3.38.07-1.02-.54-1.32-2.32-.25-2.76,19.79-8.07,38.8-18.22,59.11-24.88,1.53-.5,3.09-1,4.7-1.03,1.61-.03,4.63.21,4.99,1.78Z"/>
          <g>
            <path class="cls-17" d="M163.79,328.18l47.22-6.95c2.36-.35,4.37,1.72,3.94,4.07-2.06,11.16-3.52,22.44-4.31,33.76-16.71,2.23-32.71,4.23-52.03,7.16,1.28-13.04,1.9-23.4,2.2-34.67.05-1.7,1.3-3.12,2.98-3.37Z"/>
            <path class="cls-24" d="M194.35,344.64c-.57,3.24-3.23,5.49-5.95,5.01-2.72-.47-4.47-3.49-3.9-6.73.57-3.24,3.23-5.49,5.95-5.01s4.47,3.49,3.9,6.73Z"/>
          </g>
          <path class="cls-7" d="M131.26,407.26c5.75,2.07,12.69,1.52,18.5-.38,13.41-4.38,24.1-14.42,34.3-24.16,7.06,10.2,15.65,19.99,22.71,30.19,1.51,2.18,3.17,4.49,5.65,5.44s8.9-6.74,8.59-8.77c-.31-2.04-1.27-3.91-2.24-5.73-5.88-11.01-12.62-21.53-19.72-31.79-2.68-3.88-5.74-7.95-10.24-9.36-4.69-1.46-9.7.37-14.3,2.1-14.81,5.57-26.78,7.36-43.24,12.5-18.83,5.88-9.3,26.61,0,29.96Z"/>
          <path class="cls-3" d="M240.62,414.59c.65.13,1.42.37,1.57,1.01.18.77-.68,1.35-1.42,1.66-7.38,3.08-15.41,4.18-23.33,5.25-.99.13-2.04.26-2.95-.16-1.06-.49-1.67-1.6-2.12-2.67-.47-1.1-.86-2.3-.67-3.48.27-1.65,1.65-2.92,3.11-3.73,1.14-.63,3.01-1.83,4.32-1.88,1.43-.05,3.2.61,4.62.86,3.63.65,7.26,1.31,10.88,2,2,.38,3.99.76,5.99,1.15Z"/>
          <path class="cls-3" d="M176.84,417.98c-.32,1.08-.56,2.28-.12,3.32.39.92,1.28,1.55,2.22,1.87.94.32,1.96.37,2.95.4,5.34.2,10.68.18,16.03.16,1.5,0,3,0,4.48-.25.83-.14,1.85-.62,1.74-1.45-.07-.59-.69-.93-1.23-1.18-4.02-1.81-8.09-3.52-12.2-5.11-2.09-.81-4.18-1.59-6.29-2.34-1.19-.42-3.45-1.72-4.76-1.19-1.62.66-2.39,4.27-2.83,5.77Z"/>
        </g>
      </g>
    </g>
    <g id="DESIGNED_BY_FREEPIK" class="cls-14">
      <g>
        <g>
          <g>
            <path d="M260.1,465.97c-.43.44-.8.93-1.11,1.45l-.47-.24c-.07-.3-.35-.5-.66-.47-.33.04-.57.34-.53.67.04.33.34.57.67.53.07,0,.13-.03.18-.05l.45.23c-.25.55-.43,1.14-.54,1.74l.75.13c.23-1.31.85-2.51,1.79-3.47l-.54-.53Z"/>
            <path d="M265.59,463.67c-.17,0-.34,0-.51.02l-.07-.63c.19-.15.3-.39.27-.64-.05-.39-.4-.67-.8-.63-.39.05-.67.4-.63.8.03.25.19.46.4.56l.07.62c-.71.12-1.4.33-2.06.65l.33.68c.93-.45,1.94-.67,3-.67.5,0,.99.05,1.47.16l.16-.74c-.53-.12-1.09-.17-1.64-.17Z"/>
            <path d="M272.19,466.22c.33-.04.57-.34.53-.67-.04-.33-.34-.57-.67-.53-.31.04-.54.3-.53.61l-.42.36c-.42-.43-.89-.81-1.41-1.14l-.4.64c1.13.71,2.02,1.73,2.56,2.93l.69-.31c-.25-.55-.57-1.07-.94-1.55l.4-.35c.06.01.13.02.19,0Z"/>
            <path d="M265.04,473.88c-.39.02-.77.03-1.16.03-.88,0-1.73-.06-2.48-.18-.39-.06-.85-.15-1.27-.29,1.05,1.86,3.07,3.12,5.39,3.12,2.86,0,5.26-1.92,5.95-4.5-.68.45-1.51.83-2.46,1.12-1.18.37-2.55.61-3.97.69Z"/>
            <path d="M265.59,465.19c-3.35,0-6.08,2.67-6.08,5.94,0,.43.05.85.14,1.26.67.48,2.71.89,5.35.73,2.88-.17,5.3-.96,6.67-2.16,0-.19-.02-.39-.05-.58-.38-2.96-2.97-5.2-6.03-5.2ZM263.43,471.7c-1.02,0-1.85-.83-1.85-1.85s.83-1.85,1.85-1.85,1.85.83,1.85,1.85-.83,1.85-1.85,1.85ZM268.17,470.8c-.75,0-1.36-.61-1.36-1.36s.61-1.36,1.36-1.36,1.36.61,1.36,1.36-.61,1.36-1.36,1.36Z"/>
          </g>
          <path d="M281.6,467.06c-.29-.12-.81-.31-1.38-.24-.55.07-.84.34-.84,1.01v.87h2.23v1.72h-2.23v5.45h-1.93v-5.45h-1.34v-1.72h1.34v-.89c0-1.68.9-2.78,2.57-2.78.64,0,1.16.12,1.59.31v1.73Z"/>
          <path d="M286.3,470.39c-.18-.03-.36-.05-.53-.05-.9,0-1.51.55-1.51,1.61v3.91h-1.93v-7.17h1.87v.78c.45-.67,1.14-.98,2.02-.98.41,0,.85.13,1.09.34l-1.02,1.55Z"/>
          <path d="M293.97,472.27c0,.22-.01.49-.04.65h-5.08c.21,1.04.93,1.49,1.84,1.49.62,0,1.3-.25,1.81-.69l1.13,1.24c-.81.75-1.85,1.09-3.06,1.09-2.2,0-3.72-1.5-3.72-3.75s1.48-3.8,3.63-3.8,3.48,1.53,3.49,3.77ZM288.85,471.6h3.18c-.18-.92-.73-1.44-1.56-1.44-.91,0-1.44.55-1.61,1.44Z"/>
          <path d="M301.62,472.27c0,.22-.01.49-.04.65h-5.08c.21,1.04.93,1.49,1.84,1.49.62,0,1.3-.25,1.81-.69l1.13,1.24c-.81.75-1.85,1.09-3.06,1.09-2.2,0-3.72-1.5-3.72-3.75s1.48-3.8,3.63-3.8,3.48,1.53,3.49,3.77ZM296.5,471.6h3.18c-.18-.92-.73-1.44-1.56-1.44-.91,0-1.44.55-1.61,1.44Z"/>
          <path d="M309.96,472.27c0,2.15-1.5,3.77-3.47,3.77-.96,0-1.64-.38-2.11-.93v3.71h-1.92v-10.13h1.89v.79c.47-.58,1.15-.98,2.14-.98,1.98,0,3.48,1.62,3.48,3.77ZM304.29,472.27c0,1.13.75,1.98,1.84,1.98s1.85-.88,1.85-1.98-.71-1.98-1.85-1.98-1.84.84-1.84,1.98Z"/>
          <path d="M313.07,466.34c0,.7-.54,1.23-1.24,1.23s-1.23-.53-1.23-1.23.53-1.24,1.23-1.24,1.24.55,1.24,1.24ZM312.81,475.86h-1.93v-7.17h1.93v7.17Z"/>
          <path d="M316.03,471.24l2.7-2.55h2.37l-3.48,3.38,3.5,3.8h-2.38l-2.72-2.9v2.9h-1.93v-10.66h1.93v6.04Z"/>
        </g>
        <g>
          <path d="M184.41,475.8v-1.05c-.53.72-1.39,1.23-2.39,1.23-1.85,0-3.15-1.41-3.15-3.71s1.29-3.72,3.15-3.72c.95,0,1.82.47,2.39,1.25v-3.76h1.1v9.77h-1.1ZM184.41,473.88v-3.21c-.4-.62-1.24-1.14-2.12-1.14-1.42,0-2.27,1.17-2.27,2.74s.85,2.72,2.27,2.72c.88,0,1.73-.5,2.12-1.11Z"/>
          <path d="M186.93,472.25c0-2.05,1.46-3.71,3.49-3.71,2.14,0,3.4,1.67,3.4,3.79v.28h-5.73c.09,1.33,1.03,2.45,2.55,2.45.81,0,1.63-.32,2.18-.89l.53.72c-.7.7-1.65,1.08-2.81,1.08-2.09,0-3.6-1.51-3.6-3.72ZM190.4,469.46c-1.51,0-2.26,1.27-2.31,2.36h4.64c-.01-1.05-.72-2.36-2.33-2.36Z"/>
          <path d="M194.61,474.86l.57-.79c.47.54,1.36,1.01,2.33,1.01,1.08,0,1.67-.51,1.67-1.22,0-1.71-4.38-.66-4.38-3.28,0-1.1.95-2.04,2.64-2.04,1.2,0,2.05.45,2.62,1.03l-.51.76c-.42-.51-1.2-.89-2.11-.89-.97,0-1.57.48-1.57,1.11,0,1.55,4.38.53,4.38,3.28,0,1.19-.95,2.14-2.78,2.14-1.16,0-2.14-.35-2.86-1.11Z"/>
          <path d="M201.48,466.98c0-.41.34-.75.73-.75s.75.34.75.75-.34.73-.75.73-.73-.32-.73-.73ZM201.67,475.8v-7.07h1.1v7.07h-1.1Z"/>
          <path d="M204.58,477.61l.56-.82c.59.7,1.29.97,2.3.97,1.17,0,2.27-.57,2.27-2.12v-1.01c-.51.72-1.38,1.26-2.37,1.26-1.85,0-3.15-1.38-3.15-3.66s1.29-3.68,3.15-3.68c.95,0,1.8.47,2.37,1.25v-1.07h1.1v6.87c0,2.34-1.64,3.08-3.37,3.08-1.2,0-2.02-.23-2.86-1.05ZM209.71,473.76v-3.09c-.38-.62-1.23-1.14-2.11-1.14-1.42,0-2.27,1.13-2.27,2.7s.85,2.7,2.27,2.7c.88,0,1.73-.54,2.11-1.16Z"/>
          <path d="M217.41,475.8v-4.63c0-1.24-.63-1.64-1.58-1.64-.86,0-1.68.53-2.09,1.1v5.17h-1.1v-7.07h1.1v1.03c.5-.59,1.46-1.2,2.52-1.2,1.48,0,2.26.75,2.26,2.28v4.97h-1.1Z"/>
          <path d="M219.93,472.25c0-2.05,1.46-3.71,3.49-3.71,2.14,0,3.4,1.67,3.4,3.79v.28h-5.73c.09,1.33,1.03,2.45,2.55,2.45.81,0,1.63-.32,2.18-.89l.53.72c-.7.7-1.66,1.08-2.81,1.08-2.09,0-3.6-1.51-3.6-3.72ZM223.4,469.46c-1.51,0-2.26,1.27-2.31,2.36h4.64c-.01-1.05-.72-2.36-2.33-2.36Z"/>
          <path d="M233.35,475.8v-1.05c-.53.72-1.39,1.23-2.39,1.23-1.85,0-3.15-1.41-3.15-3.71s1.29-3.72,3.15-3.72c.95,0,1.82.47,2.39,1.25v-3.76h1.1v9.77h-1.1ZM233.35,473.88v-3.21c-.4-.62-1.25-1.14-2.12-1.14-1.42,0-2.27,1.17-2.27,2.74s.85,2.72,2.27,2.72c.88,0,1.73-.5,2.12-1.11Z"/>
          <path d="M239.69,475.8v-9.77h1.1v3.76c.57-.78,1.42-1.25,2.39-1.25,1.85,0,3.15,1.46,3.15,3.72s-1.3,3.71-3.15,3.71c-1,0-1.86-.51-2.39-1.23v1.05h-1.1ZM242.9,474.99c1.44,0,2.29-1.16,2.29-2.72s-.85-2.74-2.29-2.74c-.86,0-1.73.53-2.11,1.14v3.21c.38.62,1.25,1.11,2.11,1.11Z"/>
          <path d="M247.53,477.57c.16.07.42.12.6.12.48,0,.81-.16,1.05-.75l.47-1.07-2.96-7.15h1.19l2.36,5.8,2.34-5.8h1.2l-3.54,8.51c-.42,1.03-1.14,1.42-2.08,1.44-.23,0-.6-.04-.81-.1l.18-1Z"/>
        </g>
      </g>
    </g>
  </g>
</svg>