<?xml version="1.0" encoding="UTF-8"?>
<svg xmlns="http://www.w3.org/2000/svg" version="1.1" viewBox="0 0 32 32">
  <defs>
    <style>
      .cls-1 {
        fill: #8ece34;
      }
    </style>
  </defs>
  <!-- Generator: Adobe Illustrator 28.6.0, SVG Export Plug-In . SVG Version: 1.2.0 Build 709)  -->
  <g>
    <g id="objects">
      <g>
        <path class="cls-1" d="M13.67,30.52c-.57,0-1.15-.04-1.72-.11-5.84-.74-10.61-5.51-11.34-11.34-.52-4.11.85-8.13,3.75-11.03,2.48-2.49,5.79-3.86,9.31-3.86,2.29,0,4.52.59,6.49,1.71l-6.74,6.74-3.89-3.89-6.92,6.92,9.4,9.4c.38.38.88.59,1.41.59s1.04-.21,1.41-.59l11.46-11.46c.36,1.21.54,2.47.54,3.75,0,3.52-1.37,6.83-3.86,9.31-2.48,2.49-5.79,3.86-9.31,3.86Z"/>
        <path class="cls-1" d="M13.43,16.1l-3.89-3.89-3.45,3.45,6.28,6.28c.59.59,1.54.59,2.12,0L32,4.43l-3.45-3.45-15.12,15.12Z"/>
      </g>
    </g>
  </g>
</svg>